<?xml version="1.0" encoding="UTF-8"?><svg id="Layer_1" xmlns="http://www.w3.org/2000/svg" viewBox="0 0 32.65 32.65"><defs><style>.cls-1{fill:#fff;stroke:#fff;stroke-miterlimit:10;}.cls-2{fill:#232558;}</style></defs><rect class="cls-1" width="32.65" height="32.65"/><path class="cls-2" d="M15.69,3.4c.4-.18.86-.18,1.26,0l10.22,4.64h1.46c.45,0,.82.37.82.82v3.28c0,.45-.37.82-.82.82h-.82v10.53c0,.47.26.87.59,1.2.1.1.17.23.21.38l.82,3.28c.11.44-.15.88-.59.99-.07.02-.14.03-.2.02H4.01c-.45,0-.82-.36-.82-.81,0-.07,0-.14.02-.2l.82-3.28c.04-.15.11-.28.21-.38.33-.34.59-.73.59-1.2v-10.53h-.82c-.45,0-.82-.37-.82-.82v-3.28c0-.45.37-.82.82-.82h1.46L15.69,3.4ZM16.19,8.04h.28c1.63,0,2.13-2.21.65-2.91l-.14-.07c-.41-.2-.89-.2-1.31,0l-.14.07c-1.47.7-.98,2.91.65,2.91ZM6.47,12.97v11.49c.33-2.22.72-3.87,1.64,0v-11.49c-.55,1.74-1.09,1.74-1.64,0ZM9.76,14.49v8.44c0,.84.68,1.53,1.53,1.53h1.05c.84,0,1.53-.68,1.53-1.53v-8.44c0-.84-.68-1.53-1.53-1.53h-1.05c-.84,0-1.53.68-1.53,1.53ZM15.5,12.97c.4,3.83.4,7.66,0,11.49h1.64c-.47-3.83-.47-7.66,0-11.49h-1.64ZM18.79,14.49v8.44c0,.84.68,1.53,1.53,1.53h1.05c.84,0,1.53-.68,1.53-1.53v-8.44c0-.84-.68-1.53-1.53-1.53h-1.05c-.84,0-1.53.68-1.53,1.53ZM24.53,12.97v11.49c.55-2.6,1.09-2.6,1.64,0v-11.49c-.55,1.43-1.09,1.43-1.64,0ZM27.81,11.32v-1.64c-7.96-1.69-15.61-1.63-22.98,0v1.64c7.72,1.08,15.38,1.14,22.98,0ZM27.17,26.1H5.47l-.41,1.64h22.52l-.41-1.64Z"/></svg>